<svg width="11" height="13" viewBox="0 0 11 13" fill="none" xmlns="http://www.w3.org/2000/svg">
    <path d="M1 2.27723C1 1.69224 1 1.39974 1.12836 1.23851C1.24019 1.09804 1.41112 1.01112 1.59614 1.00063C1.80853 0.988575 2.06466 1.15082 2.57691 1.47532L9.243 5.69809C9.66626 5.96621 9.8779 6.10028 9.95164 6.26925C10.0161 6.41698 10.0161 6.58302 9.95164 6.73075C9.8779 6.89972 9.66626 7.03378 9.243 7.30191L2.5769 11.5247C2.06466 11.8492 1.80853 12.0114 1.59614 11.9994C1.41112 11.9889 1.24019 11.902 1.12836 11.7615C1 11.6003 1 11.3078 1 10.7228V2.27723Z" stroke="#000000" stroke-width="1.5" stroke-linecap="round" stroke-linejoin="round"/>
</svg>
